<svg id="_x31__x2C_5" enable-background="new 0 0 36 36" height="512" viewBox="0 0 36 36" width="512" xmlns="http://www.w3.org/2000/svg"><path d="m27.623 31.833c-6.917 0-11.667 3.583-15 3.583s-10.333-1.916-10.333-17.249 9.417-17.584 13.083-17.584c17.167 0 24.5 31.25 12.25 31.25z" fill="#efefef"/><g fill="#a4afc1"><path d="m6.033 2.467h2v1h-2z" transform="matrix(.707 -.707 .707 .707 -.038 5.842)"/><path d="m1.967 6.533h2v1h-2z" transform="matrix(.707 -.707 .707 .707 -4.104 4.158)"/><path d="m2.644 1.967h1v2h-1z" transform="matrix(.707 -.707 .707 .707 -1.177 3.092)"/></g><circle cx="15.5" cy="15.5" fill="#f3f3f1" r="8.75"/><circle cx="28" cy="8" fill="#2fdf84" r="1.25"/><circle cx="24" cy="13" fill="#2fdf84" r="1.25"/><circle cx="18" cy="10" fill="#2fdf84" r="1.25"/><path d="m9 15.5c0-4.45 3.325-8.116 7.625-8.67-.369-.047-.743-.08-1.125-.08-4.833 0-8.75 3.917-8.75 8.75 0 4.832 3.917 8.75 8.75 8.75.382 0 .756-.033 1.125-.08-4.3-.554-7.625-4.22-7.625-8.67z" fill="#d5dbe1"/><path d="m29 8c0-.19.049-.365.125-.526-.2-.425-.625-.724-1.125-.724-.69 0-1.25.56-1.25 1.25s.56 1.25 1.25 1.25c.5 0 .925-.299 1.125-.724-.076-.161-.125-.336-.125-.526z" fill="#00b871"/><path d="m25 13c0-.19.049-.365.125-.526-.2-.425-.625-.724-1.125-.724-.69 0-1.25.56-1.25 1.25s.56 1.25 1.25 1.25c.5 0 .925-.299 1.125-.724-.076-.161-.125-.336-.125-.526z" fill="#00b871"/><path d="m19 10c0-.19.049-.365.125-.526-.2-.425-.625-.724-1.125-.724-.69 0-1.25.56-1.25 1.25s.56 1.25 1.25 1.25c.5 0 .925-.299 1.125-.724-.076-.161-.125-.336-.125-.526z" fill="#00b871"/><path d="m28 10c-1.103 0-2-.897-2-2s.897-2 2-2 2 .897 2 2-.897 2-2 2zm0-2.5c-.275 0-.5.225-.5.5s.225.5.5.5.5-.225.5-.5-.225-.5-.5-.5z"/><path d="m24 15c-1.103 0-2-.897-2-2s.897-2 2-2 2 .897 2 2-.897 2-2 2zm0-2.5c-.275 0-.5.225-.5.5s.225.5.5.5.5-.225.5-.5-.225-.5-.5-.5z"/><path d="m18 12c-1.103 0-2-.897-2-2s.897-2 2-2 2 .897 2 2-.897 2-2 2zm0-2.5c-.275 0-.5.225-.5.5s.225.5.5.5.5-.225.5-.5-.225-.5-.5-.5z"/><path d="m24.285 9.75h3.43v1.5h-3.43z" transform="matrix(.624 -.782 .782 .624 1.573 24.268)"/><path d="m20.25 9.635h1.501v3.73h-1.501z" transform="matrix(.445 -.896 .896 .445 1.355 25.186)"/><path d="m15.5 25c-5.238 0-9.5-4.262-9.5-9.5 0-4.972 3.874-9.131 8.819-9.468l.102 1.496c-4.161.284-7.421 3.785-7.421 7.972 0 4.411 3.589 8 8 8 3.736 0 6.935-2.537 7.779-6.17l1.461.34c-1.003 4.315-4.803 7.33-9.24 7.33z"/><path d="m24.807 19.585h1.5v11.945h-1.5z" transform="matrix(.707 -.707 .707 .707 -10.586 25.557)"/></svg>