<?xml version="1.0" encoding="UTF-8"?>
<!DOCTYPE svg PUBLIC "-//W3C//DTD SVG 1.1//EN" "http://www.w3.org/Graphics/SVG/1.1/DTD/svg11.dtd">
<svg xmlns="http://www.w3.org/2000/svg" xmlns:xlink="http://www.w3.org/1999/xlink">
<symbol id="face" viewBox="0 0 512 512">
	<path d="M512 256C512 114.6 397.4 0 256 0S0 114.6 0 256s114.6 256 256 256c1.5 0 3 0 4.5-.1V312.7h-55v-64.1h55v-47.2c0-54.7 33.4-84.5 82.2-84.5 23.4 0 43.5 1.7 49.3 2.5v57.2h-33.6c-26.5 0-31.7 12.6-31.7 31.1v40.8h63.5l-8.3 64.1h-55.2v189.5C433.7 471.4 512 372.9 512 256z"/>
</symbol>
<symbol id="git" viewBox="0 0 24 24">
	<path d="M12 .5C5.37.5 0 5.78 0 12.292c0 5.211 3.438 9.63 8.205 11.188.6.111.82-.254.82-.567 0-.28-.01-1.022-.015-2.005-3.338.711-4.042-1.582-4.042-1.582-.546-1.361-1.335-1.725-1.335-1.725-1.087-.731.084-.716.084-.716 1.205.082 1.838 1.215 1.838 1.215 1.07 1.803 2.809 1.282 3.495.981.108-.763.417-1.282.76-1.577-2.665-.295-5.466-1.309-5.466-5.827 0-1.287.465-2.339 1.235-3.164-.135-.298-.54-1.497.105-3.121 0 0 1.005-.316 3.3 1.209.96-.262 1.98-.392 3-.398 1.02.006 2.04.136 3 .398 2.28-1.525 3.285-1.209 3.285-1.209.645 1.624.24 2.823.12 3.121.765.825 1.23 1.877 1.23 3.164 0 4.53-2.805 5.527-5.475 5.817.42.354.81 1.077.81 2.182 0 1.578-.015 2.846-.015 3.229 0 .309.21.678.825.56C20.565 21.917 24 17.495 24 12.292 24 5.78 18.627.5 12 .5z"/>
</symbol>
<symbol id="ins" viewBox="0 0 512 512">
	<path d="M305 256c0 27.063-21.938 49-49 49s-49-21.938-49-49 21.938-49 49-49 49 21.938 49 49zm0 0"/>
	<path d="M370.594 169.305a45.546 45.546 0 00-10.996-16.903 45.514 45.514 0 00-16.903-10.996c-5.18-2.011-12.96-4.406-27.293-5.058-15.504-.707-20.152-.86-59.402-.86-39.254 0-43.902.149-59.402.856-14.332.656-22.118 3.05-27.293 5.062a45.483 45.483 0 00-16.903 10.996 45.572 45.572 0 00-11 16.903c-2.011 5.18-4.406 12.965-5.058 27.297-.707 15.5-.86 20.148-.86 59.402 0 39.25.153 43.898.86 59.402.652 14.332 3.047 22.114 5.058 27.293a45.563 45.563 0 0010.996 16.903 45.514 45.514 0 0016.903 10.996c5.18 2.015 12.965 4.41 27.297 5.062 15.5.707 20.144.856 59.398.856 39.258 0 43.906-.149 59.402-.856 14.332-.652 22.118-3.047 27.297-5.062a48.68 48.68 0 0027.899-27.899c2.011-5.18 4.406-12.96 5.062-27.293.707-15.504.856-20.152.856-59.402 0-39.254-.149-43.902-.856-59.402-.652-14.332-3.047-22.118-5.062-27.297zM256 331.485c-41.691 0-75.488-33.794-75.488-75.485s33.797-75.484 75.488-75.484c41.688 0 75.484 33.793 75.484 75.484S297.688 331.484 256 331.484zm78.469-136.313c-9.742 0-17.64-7.899-17.64-17.64s7.898-17.641 17.64-17.641 17.64 7.898 17.64 17.64c-.004 9.742-7.898 17.64-17.64 17.64zm0 0"/>
	<path d="M256 0C114.637 0 0 114.637 0 256s114.637 256 256 256 256-114.637 256-256S397.363 0 256 0zm146.113 316.605c-.71 15.649-3.199 26.333-6.832 35.684a75.164 75.164 0 01-42.992 42.992c-9.348 3.633-20.035 6.117-35.68 6.832-15.675.715-20.683.887-60.605.887-39.926 0-44.93-.172-60.61-.887-15.644-.715-26.331-3.199-35.68-6.832a72.018 72.018 0 01-26.038-16.957 72.044 72.044 0 01-16.953-26.035c-3.633-9.348-6.121-20.035-6.832-35.68-.723-15.68-.891-20.687-.891-60.609s.168-44.93.887-60.605c.71-15.649 3.195-26.332 6.828-35.684a72.013 72.013 0 0116.96-26.035 72.003 72.003 0 0126.036-16.957c9.352-3.633 20.035-6.117 35.684-6.832C211.07 109.172 216.078 109 256 109s44.93.172 60.605.89c15.649.712 26.332 3.196 35.684 6.825a72.061 72.061 0 0126.04 16.96 72.027 72.027 0 0116.952 26.036c3.637 9.352 6.121 20.035 6.836 35.684.715 15.675.883 20.683.883 60.605s-.168 44.93-.887 60.605zm0 0"/>
</symbol>
<symbol id="lin" viewBox="0 0 512 512">
	<path d="M256 0C114.637 0 0 114.637 0 256s114.637 256 256 256 256-114.637 256-256S397.363 0 256 0zm-74.39 387h-62.348V199.426h62.347zm-31.173-213.188h-.406c-20.922 0-34.453-14.402-34.453-32.402 0-18.406 13.945-32.41 35.274-32.41 21.328 0 34.453 14.004 34.859 32.41 0 18-13.531 32.403-35.274 32.403zM406.423 387h-62.34V286.652c0-25.218-9.027-42.418-31.586-42.418-17.223 0-27.48 11.602-31.988 22.801-1.649 4.008-2.051 9.61-2.051 15.215V387h-62.344s.817-169.977 0-187.574h62.344v26.558c8.285-12.78 23.11-30.96 56.188-30.96 41.02 0 71.777 26.808 71.777 84.421zm0 0"/>
</symbol>
<symbol id="site" viewBox="0 0 36 36">
	<path fill="#efefef" d="M31.833 27.623c0-6.917 3.583-11.667 3.583-15S33.5 2.29 18.167 2.29.583 11.707.583 15.373c0 17.167 31.25 24.5 31.25 12.25z"/>
	<path fill="#a4afc1" d="M27.903 2.617l.707-.707 1.414 1.414-.707.707zm4.065 4.066l.707-.707L34.09 7.39l-.707.707zm-.175-3.36l1.414-1.414.707.707L32.5 4.03z"/>
	<path fill="#f3f3f1" d="M27.25 28.25H8.75a2 2 0 01-2-2v-15h22.5v15a2 2 0 01-2 2z"/>
	<g fill="#2fdf84">
		<path d="M29.25 11.25H6.75v-1.5a2 2 0 012-2h18.5a2 2 0 012 2z"/>
		<circle cx="23" cy="17" r="1.25"/>
		<circle cx="19" cy="22" r="1.25"/>
		<circle cx="13" cy="19" r="1.25"/>
	</g>
	<path fill="#d5dbe1" d="M9 26.25v-15H6.75v15a2 2 0 002 2H11a2 2 0 01-2-2z"/>
	<path fill="#00b871" d="M11 7.75H8.75a2 2 0 00-2 2v1.5H9v-1.5a2 2 0 012-2zM24 17c0-.19.049-.365.125-.526A1.245 1.245 0 0023 15.75a1.25 1.25 0 000 2.5c.5 0 .925-.299 1.125-.724A1.223 1.223 0 0124 17zm-4 5c0-.19.049-.365.125-.526A1.245 1.245 0 0019 20.75a1.25 1.25 0 000 2.5c.5 0 .925-.299 1.125-.724A1.223 1.223 0 0120 22zm-6-3c0-.19.049-.365.125-.526A1.245 1.245 0 0013 17.75a1.25 1.25 0 000 2.5c.5 0 .925-.299 1.125-.724A1.223 1.223 0 0114 19z"/>
	<path d="M23 19c-1.103 0-2-.897-2-2s.897-2 2-2 2 .897 2 2-.897 2-2 2zm0-2.5c-.275 0-.5.225-.5.5s.225.5.5.5.5-.225.5-.5-.225-.5-.5-.5zM19 24c-1.103 0-2-.897-2-2s.897-2 2-2 2 .897 2 2-.897 2-2 2zm0-2.5c-.275 0-.5.225-.5.5s.225.5.5.5.5-.225.5-.5-.225-.5-.5-.5zm-6-.5c-1.103 0-2-.897-2-2s.897-2 2-2 2 .897 2 2-.897 2-2 2zm0-2.5c-.275 0-.5.225-.5.5s.225.5.5.5.5-.225.5-.5-.225-.5-.5-.5z"/>
	<path d="M19.355 20.365l2.14-2.682 1.174.936-2.14 2.682zm-5.351-.033l.668-1.345 3.342 1.66-.668 1.344z"/>
	<path d="M27.25 29H8.75A2.752 2.752 0 016 26.25V9.75A2.752 2.752 0 018.75 7h18.5A2.752 2.752 0 0130 9.75v16.5A2.752 2.752 0 0127.25 29zM8.75 8.5c-.689 0-1.25.561-1.25 1.25v16.5c0 .689.561 1.25 1.25 1.25h18.5c.689 0 1.25-.561 1.25-1.25V9.75c0-.689-.561-1.25-1.25-1.25z"/>
	<path d="M6.75 10.5h22.5V12H6.75z"/>
</symbol>
<symbol id="tel" viewBox="0 0 24 24">
	<path d="M12 24c6.629 0 12-5.371 12-12S18.629 0 12 0 0 5.371 0 12s5.371 12 12 12zM5.491 11.74l11.57-4.461c.537-.194 1.006.131.832.943l.001-.001-1.97 9.281c-.146.658-.537.818-1.084.508l-3-2.211-1.447 1.394c-.16.16-.295.295-.605.295l.213-3.053 5.56-5.023c.242-.213-.054-.333-.373-.121l-6.871 4.326-2.962-.924c-.643-.204-.657-.643.136-.953z"/>
</symbol>
<symbol id="zoom" viewBox="0 0 36 36">
	<path fill="#efefef" d="M27.623 31.833c-6.917 0-11.667 3.583-15 3.583S2.29 33.5 2.29 18.167 11.707.583 15.373.583c17.167 0 24.5 31.25 12.25 31.25z"/>
	<path fill="#a4afc1" d="M5.971 3.32l1.414-1.413.707.707-1.414 1.414zM1.905 7.386L3.32 5.972l.707.707-1.414 1.414zm.178-4.773l.707-.707L4.204 3.32l-.707.707z"/>
	<circle cx="15.5" cy="15.5" r="8.75" fill="#f3f3f1"/>
	<circle cx="28" cy="8" r="1.25" fill="#2fdf84"/>
	<circle cx="24" cy="13" r="1.25" fill="#2fdf84"/>
	<circle cx="18" cy="10" r="1.25" fill="#2fdf84"/>
	<path fill="#d5dbe1" d="M9 15.5c0-4.45 3.325-8.116 7.625-8.67a8.878 8.878 0 00-1.125-.08 8.75 8.75 0 100 17.5c.382 0 .756-.033 1.125-.08C12.325 23.616 9 19.95 9 15.5z"/>
	<path fill="#00b871" d="M29 8c0-.19.049-.365.125-.526A1.245 1.245 0 0028 6.75a1.25 1.25 0 000 2.5c.5 0 .925-.299 1.125-.724A1.223 1.223 0 0129 8zm-4 5c0-.19.049-.365.125-.526A1.245 1.245 0 0024 11.75a1.25 1.25 0 000 2.5c.5 0 .925-.299 1.125-.724A1.223 1.223 0 0125 13zm-6-3c0-.19.049-.365.125-.526A1.245 1.245 0 0018 8.75a1.25 1.25 0 000 2.5c.5 0 .925-.299 1.125-.724A1.223 1.223 0 0119 10z"/>
	<path d="M28 10c-1.103 0-2-.897-2-2s.897-2 2-2 2 .897 2 2-.897 2-2 2zm0-2.5c-.275 0-.5.225-.5.5s.225.5.5.5.5-.225.5-.5-.225-.5-.5-.5zM24 15c-1.103 0-2-.897-2-2s.897-2 2-2 2 .897 2 2-.897 2-2 2zm0-2.5c-.275 0-.5.225-.5.5s.225.5.5.5.5-.225.5-.5-.225-.5-.5-.5zm-6-.5c-1.103 0-2-.897-2-2s.897-2 2-2 2 .897 2 2-.897 2-2 2zm0-2.5c-.275 0-.5.225-.5.5s.225.5.5.5.5-.225.5-.5-.225-.5-.5-.5z"/>
	<path d="M24.351 11.361l2.14-2.682 1.174.936-2.14 2.682zM19 11.33l.667-1.345 3.342 1.66-.668 1.344z"/>
	<path d="M15.5 25C10.262 25 6 20.738 6 15.5c0-4.972 3.874-9.131 8.819-9.468l.102 1.496C10.76 7.812 7.5 11.313 7.5 15.5c0 4.411 3.589 8 8 8a7.947 7.947 0 007.779-6.17l1.461.34A9.442 9.442 0 0115.5 25z"/>
	<path d="M20.8 21.865l1.06-1.06 8.445 8.445-1.06 1.06z"/>
</symbol>
</svg>